#!OML:ASF F:\VICON\USERDATA\INSTALL\rory3\rory3.ASF
:FULLY-SPECIFIED
:DEGREES
71
root 0.7186894664242662 17.865251911885792 27.392437643108135 -3.2930400732167424 -1.8775806437075313 -1.5327939079321122
lfemur -0.12092855069816899 -2.644256993205904 -21.69672278589394
ltibia 35.85756207326771
lfoot -17.466691077194795 2.7141489390634685
ltoes -12.112612446052697
rfemur -15.51587161605993 4.913340261790747 23.794220902724142
rtibia 34.052898739729876
rfoot -10.516105574548826 -6.50512513475058
rtoes 5.4840549599731006
lowerback 9.901755399410293 0.03850716222458847 -0.11519211067202795
upperback 0.12980047934487593 -0.042215377417360034 1.4262996121795348
thorax -5.495232041741473 0.025960294199266987 2.118012083611763
lowerneck -15.981102516254628 -2.8854079223223827 -1.5926894747724627
upperneck 23.618301080254668 -3.652039210742114 0.21412965922046787
head 10.425129920159891 -1.8170528170923763 -0.1328442607068843
lclavicle -2.7026064543996447e-15 -2.3230481476962355e-15
lhumerus -32.4247784993913 5.5410471581284755 82.16101861605563
lradius 21.09399143304788
lwrist 7.737291514747625
lhand -27.682993295663152 23.674913225075205
lfingers 7.125020000000001
lthumb -1.2497086948488716 53.681928239237024
rclavicle -2.7026064543986973e-15 -2.3230481476949824e-15
rhumerus -27.62844890097744 -20.334571330028584 -72.53533984013113
rradius 30.982355449960796
rwrist 5.0646314841683155
rhand -18.13579691008631 22.53204008833718
rfingers 7.125020000000001
rthumb 8.160819924062533 -7.033726091537722
72
root 0.741364812487057 17.844708010171164 28.047828291668072 -3.403415557347454 -1.9543014973328905 -1.4325995441822537
lfemur 0.2833352571053531 -2.7211164619493635 -21.834467503294228
ltibia 36.5992603589391
lfoot -17.609148355377286 3.128193455933409
ltoes -13.021866914028427
rfemur -15.561084903541337 4.947040431055281 23.87003693651436
rtibia 33.54512121052037
rfoot -10.638164479646145 -6.518146134306799
rtoes 4.897234744507889
lowerback 9.945707109454471 -0.015189174788752924 -0.2123938647133472
upperback 0.18927046421503257 -0.09109723792557634 1.462558387996806
thorax -5.43026303481703 -0.007674489695721487 2.1891758210542225
lowerneck -16.00220006839874 -2.8499278907067973 -1.6118406917531005
upperneck 23.85046398509895 -3.576360863892026 0.18107619354240886
head 10.518026256046666 -1.7905813260601227 -0.12595596443571322
lclavicle -2.7026064543930076e-15 -2.3230481476911454e-15
lhumerus -31.925576805139727 5.066165663933186 82.06079575023924
lradius 21.261818663195875
lwrist 7.951698273563807
lhand -27.819711081070096 23.660809495936192
lfingers 7.125020000000001
lthumb -1.3724741658675834 53.58830640580054
rclavicle -2.702606454396337e-15 -2.323048147692908e-15
rhumerus -27.569280879656375 -19.987323165357996 -73.16550829680497
rradius 31.160406033028053
rwrist 5.797367564222232
rhand -18.15036998926 22.518950013087075
rfingers 7.125020000000001
rthumb 8.156330074017895 -7.060272125388559
73
root 0.757334774656877 17.836640055398572 28.34948037550908 -3.3403560655532685 -1.9706849783836984 -1.6563894426914256
lfemur 0.6852548535785363 -2.764975533677551 -21.505481681833214
ltibia 37.81639626733071
lfoot -17.654056314418845 3.513426039878114
ltoes -12.605548838191405
rfemur -15.433240627076877 5.004927078658069 24.22189869679134
rtibia 32.5105198144622
rfoot -10.82384203890257 -6.627373972178917
rtoes 3.812791298686055
lowerback 9.96604831442195 -0.07314120364821425 -0.06899380713516279
upperback 0.1956758571561267 -0.11990545860837809 1.5385875622346596
thorax -5.441672200790364 -0.011175014906525615 2.2344302623905072
lowerneck -16.036644325718395 -2.818593157406261 -1.626721173456511
upperneck 23.973068359654302 -3.513340224517548 0.12152728249627441
head 10.627775017631622 -1.7667878530512118 -0.14361848216490108
lclavicle -2.7026064543940142e-15 -2.3230481476915146e-15
lhumerus -31.05060641421266 4.714895699174656 82.04003212303319
lradius 21.347984639370694
lwrist 7.8919441908092
lhand -27.586624893859366 23.570836013580795
lfingers 7.125020000000001
lthumb -1.131133162307989 53.528015523179754
rclavicle -2.702606454391858e-15 -2.3230481476894e-15
rhumerus -27.437264906688924 -19.516861403577437 -73.89593989310151
rradius 31.19753809662211
rwrist 6.415004862228117
rhand -18.189023744003123 22.407187237229543
rfingers 7.125020000000001
rthumb 8.119667065506192 -7.257484538587162
74
root 0.7692031736524014 17.81933210719093 28.52384096311771 -3.5143591565607557 -2.1296544384515395 -1.5153857526806842
lfemur 1.4079354209974433 -2.793434496730114 -21.599466728039317
ltibia 39.12125470058707
lfoot -17.375893480107667 3.7025154847757715
ltoes -13.75615579783517
rfemur -15.297979411494602 5.099188897283368 24.263434090679265
rtibia 31.76100477451525
rfoot -10.954959584076535 -6.697836758995258
rtoes 4.373223992907183
lowerback 10.022250468694477 -0.08931332576813572 -0.23744374908166743
upperback 0.26017456514804044 -0.17551867541980104 1.555178795430722
thorax -5.416167665160657 -0.03834460132382089 2.303649348654515
lowerneck -16.039926546900233 -2.7844920941084568 -1.6563068802897307
upperneck 23.90649149742986 -3.4445391331104678 0.12765332598803547
head 10.582656017766107 -1.743380389936327 -0.11883955353269512
lclavicle -2.702606454380288e-15 -2.3230481476814657e-15
lhumerus -30.2350824453471 4.0938460157165695 81.97541826349175
lradius 21.463592006913323
lwrist 7.5218118682541615
lhand -27.62476444500599 23.047498727288147
lfingers 7.125020000000001
lthumb -1.1092403303541079 53.0422788034268
rclavicle -2.702606454393893e-15 -2.3230481476904895e-15
rhumerus -27.263741440913137 -19.06994086582176 -74.50875552149593
rradius 31.076439753477594
rwrist 6.725695615132915
rhand -18.153261156249737 22.363558059197935
rfingers 7.125020000000001
rthumb 8.1557697074584 -7.300672835837628
75
root 0.7902202171631441 17.80965151628354 29.13385897683289 -3.572282550736511 -2.1604400926956333 -1.500631589794677
lfemur 2.028666179044466 -2.8718384328550437 -21.561749488141764
ltibia 40.276568209642626
lfoot -17.025699605694797 3.595978549438416
ltoes -15.240035749389504
rfemur -15.030766800879297 5.137360590091307 24.42205901531881
rtibia 30.92659155164722
rfoot -10.96729052467387 -6.705128567080046
rtoes 4.413689774306812
lowerback 10.091772332546775 -0.10670188844514089 -0.17168541890868405
upperback 0.3088408670157067 -0.1825866729475547 1.595861182315387
thorax -5.408076702688575 -0.04168591004786443 2.307618602958381
lowerneck -16.05976465472204 -2.7557856116156683 -1.6874649886867683
upperneck 23.814200550585348 -3.375705727533405 0.10674599602566712
head 10.53627061831128 -1.7216327894216588 -0.10997068769100835
lclavicle -2.7026064543790554e-15 -2.323048147680311e-15
lhumerus -29.2611515890883 3.512949373504899 81.96477899734897
lradius 21.612526343065547
lwrist 7.299871406429773
lhand -27.500831778724283 22.845298831147765
lfingers 7.125020000000001
lthumb -0.9597048502380214 52.87707657733666
rclavicle -2.7026064543927934e-15 -2.3230481476894127e-15
rhumerus -27.198401570126652 -18.77811608668491 -74.81191329092213
rradius 30.82660212778434
rwrist 6.389928723665484
rhand -18.109316015398306 22.325959061217244
rfingers 7.125020000000001
rthumb 8.159907060166935 -7.435118601740434
76
root 0.8036070035342331 17.791268151393453 29.58597134137271 -3.7730587763998837 -2.218343238836835 -1.2565453783282892
lfemur 2.4627802084211385 -2.925311836403594 -21.734376923938974
ltibia 41.41048065072172
lfoot -16.38338963334068 3.352046793983363
ltoes -16.34486888807625
rfemur -14.773623767262263 5.091279792089349 24.344901354702017
rtibia 30.73961869532118
rfoot -10.946941055806427 -6.654928282062208
rtoes 5.503406810669451
lowerback 10.140259557285681 -0.11211803392833924 -0.3271766988036926
upperback 0.37605291533477014 -0.20284843966891375 1.6116173811057852
thorax -5.369360451125408 -0.037019481775321994 2.3607868790383617
lowerneck -16.077888972078178 -2.729176572285472 -1.7051683898353724
upperneck 23.656072209285252 -3.3200276874742305 0.10792141712606518
head 10.466099087970287 -1.701781571997728 -0.0937064128304233
lclavicle -2.7026064543786007e-15 -2.3230481476797235e-15
lhumerus -28.469574614808714 2.744539365238615 81.88290998889902
lradius 21.87161548327598
lwrist 7.083295877901961
lhand -27.48763692818205 22.29066914777229
lfingers 7.125020000000001
lthumb -0.9216085320372658 52.27048521494124
rclavicle -2.7026064543926972e-15 -2.3230481476890703e-15
rhumerus -27.213872701160597 -18.707567716774697 -75.07788676081961
rradius 30.53305278242666
rwrist 6.237908297476307
rhand -18.178068274758065 22.123979000693662
rfingers 7.125020000000001
rthumb 8.18517712719718 -7.528079478053655
77
root 0.8193816374037263 17.77761361332277 30.25954189875246 -3.81636881940653 -2.1713012641876452 -1.3604388333903565
lfemur 2.038520659407043 -2.8881543797058984 -21.448448563312592
ltibia 43.142325894787604
lfoot -15.850710678744818 2.837855848509637
ltoes -15.963801656387119
rfemur -14.375106671497488 5.032291293437586 24.541910440260033
rtibia 30.584331162665862
rfoot -11.019144024058239 -6.636181184210264
rtoes 6.119213653794399
lowerback 10.180017854383431 -0.12255119304718137 -0.17589637698877825
upperback 0.3793951647978875 -0.15298679225237444 1.7047360572686219
thorax -5.433035812536414 -0.029385644202969408 2.286161106472039
lowerneck -16.06447794721461 -2.701655496579437 -1.705186565719571
upperneck 23.461928574736252 -3.2592948867660376 0.07929433879431727
head 10.348925560852873 -1.6825444678396706 -0.08732484198350218
lclavicle -2.7026064543874493e-15 -2.3230481476857626e-15
lhumerus -27.676921585863745 1.9925027368560715 81.79612468357458
lradius 22.344970642073154
lwrist 6.858813082718591
lhand -27.44814871450727 22.196909659760294
lfingers 7.125020000000001
lthumb -0.8539400924535596 52.18540275823457
rclavicle -2.7026064543926428e-15 -2.3230481476888613e-15
rhumerus -27.17635787963047 -18.66600153332226 -75.43712367713643
rradius 30.19460203859995
rwrist 5.708528992219342
rhand -18.026333817934525 22.254495761927895
rfingers 7.125020000000001
rthumb 8.262604976386767 -7.529529994448012
